<?xml version="1.0" encoding="UTF-8"?>
<svg xmlns="http://www.w3.org/2000/svg" xmlns:xlink="http://www.w3.org/1999/xlink" width="360pt" height="360pt" viewBox="0 0 360 360" version="1.1">
<g id="surface1">
<path style=" stroke:none;fill-rule:evenodd;fill:rgb(24.184024%,14.970626%,51.877623%);fill-opacity:1;" d="M 352.800781 179.710938 C 352.800781 225.542969 334.59375 269.492188 302.1875 301.898438 C 269.78125 334.304688 225.828125 352.511719 180 352.511719 C 134.171875 352.511719 90.21875 334.304688 57.8125 301.898438 C 25.40625 269.492188 7.199219 225.542969 7.199219 179.710938 C 7.199219 133.882812 25.40625 89.929688 57.8125 57.523438 C 90.21875 25.117188 134.171875 6.910156 180 6.910156 C 225.828125 6.910156 269.78125 25.117188 302.1875 57.523438 C 334.59375 89.929688 352.800781 133.882812 352.800781 179.710938 Z M 352.800781 179.710938 "/>
<path style=" stroke:none;fill-rule:evenodd;fill:rgb(31.209277%,29.04097%,28.204776%);fill-opacity:1;" d="M 352.800781 179.710938 C 352.800781 200.980469 344.351562 221.378906 329.3125 236.417969 C 314.269531 251.460938 293.871094 259.910156 272.601562 259.910156 C 251.332031 259.910156 230.933594 251.460938 215.894531 236.417969 C 200.855469 221.378906 192.40625 200.980469 192.40625 179.710938 C 192.40625 158.441406 200.855469 138.042969 215.894531 123.003906 C 230.933594 107.964844 251.332031 99.515625 272.601562 99.515625 C 293.871094 99.515625 314.269531 107.964844 329.3125 123.003906 C 344.351562 138.042969 352.800781 158.441406 352.800781 179.710938 Z M 352.800781 179.710938 "/>
<path style=" stroke:none;fill-rule:evenodd;fill:rgb(9.651331%,68.757153%,42.604715%);fill-opacity:1;" d="M 352.800781 179.710938 C 352.800781 189.582031 348.878906 199.050781 341.898438 206.03125 C 334.917969 213.011719 325.453125 216.929688 315.582031 216.929688 C 305.710938 216.929688 296.242188 213.011719 289.261719 206.03125 C 282.28125 199.050781 278.359375 189.582031 278.359375 179.710938 C 278.359375 169.839844 282.28125 160.375 289.261719 153.394531 C 296.242188 146.414062 305.710938 142.492188 315.582031 142.492188 C 325.453125 142.492188 334.917969 146.414062 341.898438 153.394531 C 348.878906 160.375 352.800781 169.839844 352.800781 179.710938 Z M 352.800781 179.710938 "/>
<path style=" stroke:none;fill-rule:evenodd;fill:rgb(37.988861%,53.849088%,43.804074%);fill-opacity:1;" d="M 352.800781 179.710938 C 352.800781 184.292969 350.980469 188.6875 347.742188 191.925781 C 344.5 195.164062 340.109375 196.984375 335.527344 196.984375 C 330.945312 196.984375 326.550781 195.164062 323.3125 191.925781 C 320.074219 188.6875 318.253906 184.292969 318.253906 179.710938 C 318.253906 175.128906 320.074219 170.738281 323.3125 167.496094 C 326.550781 164.257812 330.945312 162.4375 335.527344 162.4375 C 340.109375 162.4375 344.5 164.257812 347.742188 167.496094 C 350.980469 170.738281 352.800781 175.128906 352.800781 179.710938 Z M 352.800781 179.710938 "/>
<path style=" stroke:none;fill-rule:evenodd;fill:rgb(68.61677%,96.31342%,7.814145%);fill-opacity:1;" d="M 352.800781 179.710938 C 352.800781 181.839844 351.957031 183.878906 350.453125 185.378906 C 348.949219 186.882812 346.910156 187.730469 344.785156 187.730469 C 342.65625 187.730469 340.617188 186.882812 339.113281 185.378906 C 337.609375 183.878906 336.765625 181.839844 336.765625 179.710938 C 336.765625 177.585938 337.609375 175.546875 339.113281 174.042969 C 340.617188 172.539062 342.65625 171.695312 344.785156 171.695312 C 346.910156 171.695312 348.949219 172.539062 350.453125 174.042969 C 351.957031 175.546875 352.800781 177.585938 352.800781 179.710938 Z M 352.800781 179.710938 "/>
<path style=" stroke:none;fill-rule:evenodd;fill:rgb(40.521859%,25.891508%,98.850996%);fill-opacity:1;" d="M 338.914062 171.695312 C 338.914062 173.820312 338.070312 175.859375 336.566406 177.363281 C 335.0625 178.867188 333.023438 179.710938 330.898438 179.710938 C 328.773438 179.710938 326.734375 178.867188 325.230469 177.363281 C 323.726562 175.859375 322.882812 173.820312 322.882812 171.695312 C 322.882812 169.570312 323.726562 167.53125 325.230469 166.027344 C 326.734375 164.523438 328.773438 163.679688 330.898438 163.679688 C 333.023438 163.679688 335.0625 164.523438 336.566406 166.027344 C 338.070312 167.53125 338.914062 169.570312 338.914062 171.695312 Z M 338.914062 171.695312 "/>
<path style=" stroke:none;fill-rule:evenodd;fill:rgb(5.473411%,10.362402%,50.936141%);fill-opacity:1;" d="M 338.914062 187.730469 C 338.914062 189.855469 338.070312 191.894531 336.566406 193.398438 C 335.0625 194.902344 333.023438 195.746094 330.898438 195.746094 C 328.773438 195.746094 326.734375 194.902344 325.230469 193.398438 C 323.726562 191.894531 322.882812 189.855469 322.882812 187.730469 C 322.882812 185.601562 323.726562 183.5625 325.230469 182.058594 C 326.734375 180.554688 328.773438 179.710938 330.898438 179.710938 C 333.023438 179.710938 335.0625 180.554688 336.566406 182.058594 C 338.070312 183.5625 338.914062 185.601562 338.914062 187.730469 Z M 338.914062 187.730469 "/>
<path style=" stroke:none;fill-rule:evenodd;fill:rgb(70.859846%,31.461051%,74.398413%);fill-opacity:1;" d="M 322.882812 162.4375 C 322.882812 167.019531 321.0625 171.414062 317.820312 174.652344 C 314.582031 177.890625 310.1875 179.710938 305.609375 179.710938 C 301.027344 179.710938 296.632812 177.890625 293.394531 174.652344 C 290.152344 171.414062 288.335938 167.019531 288.335938 162.4375 C 288.335938 157.855469 290.152344 153.464844 293.394531 150.222656 C 296.632812 146.984375 301.027344 145.164062 305.609375 145.164062 C 310.1875 145.164062 314.582031 146.984375 317.820312 150.222656 C 321.0625 153.464844 322.882812 157.855469 322.882812 162.4375 Z M 322.882812 162.4375 "/>
<path style=" stroke:none;fill-rule:evenodd;fill:rgb(62.337682%,42.583352%,46.370642%);fill-opacity:1;" d="M 322.882812 162.4375 C 322.882812 164.566406 322.035156 166.605469 320.53125 168.105469 C 319.03125 169.609375 316.992188 170.457031 314.863281 170.457031 C 312.738281 170.457031 310.699219 169.609375 309.195312 168.105469 C 307.691406 166.605469 306.847656 164.566406 306.847656 162.4375 C 306.847656 160.3125 307.691406 158.273438 309.195312 156.769531 C 310.699219 155.265625 312.738281 154.421875 314.863281 154.421875 C 316.992188 154.421875 319.03125 155.265625 320.53125 156.769531 C 322.035156 158.273438 322.882812 160.3125 322.882812 162.4375 Z M 322.882812 162.4375 "/>
<path style=" stroke:none;fill-rule:evenodd;fill:rgb(45.098039%,83.163195%,90.643168%);fill-opacity:1;" d="M 308.996094 154.421875 C 308.996094 156.546875 308.152344 158.585938 306.648438 160.089844 C 305.144531 161.59375 303.105469 162.4375 300.980469 162.4375 C 298.851562 162.4375 296.8125 161.59375 295.308594 160.089844 C 293.808594 158.585938 292.960938 156.546875 292.960938 154.421875 C 292.960938 152.296875 293.808594 150.257812 295.308594 148.753906 C 296.8125 147.25 298.851562 146.40625 300.980469 146.40625 C 303.105469 146.40625 305.144531 147.25 306.648438 148.753906 C 308.152344 150.257812 308.996094 152.296875 308.996094 154.421875 Z M 308.996094 154.421875 "/>
<path style=" stroke:none;fill-rule:evenodd;fill:rgb(45.032425%,32.883192%,32.387274%);fill-opacity:1;" d="M 308.996094 170.457031 C 308.996094 172.582031 308.152344 174.621094 306.648438 176.125 C 305.144531 177.628906 303.105469 178.472656 300.980469 178.472656 C 298.851562 178.472656 296.8125 177.628906 295.308594 176.125 C 293.808594 174.621094 292.960938 172.582031 292.960938 170.457031 C 292.960938 168.328125 293.808594 166.289062 295.308594 164.785156 C 296.8125 163.28125 298.851562 162.4375 300.980469 162.4375 C 303.105469 162.4375 305.144531 163.28125 306.648438 164.785156 C 308.152344 166.289062 308.996094 168.328125 308.996094 170.457031 Z M 308.996094 170.457031 "/>
<path style=" stroke:none;fill-rule:evenodd;fill:rgb(98.974594%,88.294804%,80.756847%);fill-opacity:1;" d="M 322.882812 196.984375 C 322.882812 201.566406 321.0625 205.960938 317.820312 209.199219 C 314.582031 212.4375 310.1875 214.257812 305.609375 214.257812 C 301.027344 214.257812 296.632812 212.4375 293.394531 209.199219 C 290.152344 205.960938 288.335938 201.566406 288.335938 196.984375 C 288.335938 192.40625 290.152344 188.011719 293.394531 184.769531 C 296.632812 181.53125 301.027344 179.710938 305.609375 179.710938 C 310.1875 179.710938 314.582031 181.53125 317.820312 184.769531 C 321.0625 188.011719 322.882812 192.40625 322.882812 196.984375 Z M 322.882812 196.984375 "/>
<path style=" stroke:none;fill-rule:evenodd;fill:rgb(76.267643%,3.355459%,86.126497%);fill-opacity:1;" d="M 322.882812 196.984375 C 322.882812 199.113281 322.035156 201.152344 320.53125 202.652344 C 319.03125 204.15625 316.992188 205.003906 314.863281 205.003906 C 312.738281 205.003906 310.699219 204.15625 309.195312 202.652344 C 307.691406 201.152344 306.847656 199.113281 306.847656 196.984375 C 306.847656 194.859375 307.691406 192.820312 309.195312 191.316406 C 310.699219 189.8125 312.738281 188.96875 314.863281 188.96875 C 316.992188 188.96875 319.03125 189.8125 320.53125 191.316406 C 322.035156 192.820312 322.882812 194.859375 322.882812 196.984375 Z M 322.882812 196.984375 "/>
<path style=" stroke:none;fill-rule:evenodd;fill:rgb(5.893034%,46.967269%,33.452354%);fill-opacity:1;" d="M 308.996094 188.96875 C 308.996094 191.09375 308.152344 193.132812 306.648438 194.636719 C 305.144531 196.140625 303.105469 196.984375 300.980469 196.984375 C 298.851562 196.984375 296.8125 196.140625 295.308594 194.636719 C 293.808594 193.132812 292.960938 191.09375 292.960938 188.96875 C 292.960938 186.84375 293.808594 184.804688 295.308594 183.300781 C 296.8125 181.796875 298.851562 180.953125 300.980469 180.953125 C 303.105469 180.953125 305.144531 181.796875 306.648438 183.300781 C 308.152344 184.804688 308.996094 186.84375 308.996094 188.96875 Z M 308.996094 188.96875 "/>
<path style=" stroke:none;fill-rule:evenodd;fill:rgb(71.174182%,8.767834%,93.850614%);fill-opacity:1;" d="M 308.996094 205.003906 C 308.996094 207.128906 308.152344 209.167969 306.648438 210.671875 C 305.144531 212.175781 303.105469 213.019531 300.980469 213.019531 C 298.851562 213.019531 296.8125 212.175781 295.308594 210.671875 C 293.808594 209.167969 292.960938 207.128906 292.960938 205.003906 C 292.960938 202.875 293.808594 200.835938 295.308594 199.332031 C 296.8125 197.832031 298.851562 196.984375 300.980469 196.984375 C 303.105469 196.984375 305.144531 197.832031 306.648438 199.332031 C 308.152344 200.835938 308.996094 202.875 308.996094 205.003906 Z M 308.996094 205.003906 "/>
<path style=" stroke:none;fill-rule:evenodd;fill:rgb(73.374533%,38.983749%,93.682765%);fill-opacity:1;" d="M 288.335938 142.492188 C 288.335938 152.363281 284.414062 161.832031 277.433594 168.8125 C 270.453125 175.789062 260.984375 179.710938 251.113281 179.710938 C 241.242188 179.710938 231.777344 175.789062 224.796875 168.8125 C 217.816406 161.832031 213.894531 152.363281 213.894531 142.492188 C 213.894531 132.621094 217.816406 123.15625 224.796875 116.175781 C 231.777344 109.195312 241.242188 105.273438 251.113281 105.273438 C 260.984375 105.273438 270.453125 109.195312 277.433594 116.175781 C 284.414062 123.15625 288.335938 132.621094 288.335938 142.492188 Z M 288.335938 142.492188 "/>
<path style=" stroke:none;fill-rule:evenodd;fill:rgb(20.906386%,11.085679%,36.176089%);fill-opacity:1;" d="M 288.335938 142.492188 C 288.335938 147.074219 286.515625 151.46875 283.273438 154.707031 C 280.035156 157.945312 275.640625 159.765625 271.058594 159.765625 C 266.480469 159.765625 262.085938 157.945312 258.847656 154.707031 C 255.605469 151.46875 253.785156 147.074219 253.785156 142.492188 C 253.785156 137.910156 255.605469 133.519531 258.847656 130.277344 C 262.085938 127.039062 266.480469 125.21875 271.058594 125.21875 C 275.640625 125.21875 280.035156 127.039062 283.273438 130.277344 C 286.515625 133.519531 288.335938 137.910156 288.335938 142.492188 Z M 288.335938 142.492188 "/>
<path style=" stroke:none;fill-rule:evenodd;fill:rgb(1.454185%,68.223087%,69.372091%);fill-opacity:1;" d="M 288.335938 142.492188 C 288.335938 144.617188 287.488281 146.65625 285.984375 148.160156 C 284.484375 149.664062 282.445312 150.507812 280.316406 150.507812 C 278.191406 150.507812 276.152344 149.664062 274.648438 148.160156 C 273.144531 146.65625 272.300781 144.617188 272.300781 142.492188 C 272.300781 140.367188 273.144531 138.328125 274.648438 136.824219 C 276.152344 135.320312 278.191406 134.476562 280.316406 134.476562 C 282.445312 134.476562 284.484375 135.320312 285.984375 136.824219 C 287.488281 138.328125 288.335938 140.367188 288.335938 142.492188 Z M 288.335938 142.492188 "/>
<path style=" stroke:none;fill-rule:evenodd;fill:rgb(90.411231%,71.071946%,88.691539%);fill-opacity:1;" d="M 274.449219 134.476562 C 274.449219 136.601562 273.605469 138.640625 272.101562 140.144531 C 270.597656 141.648438 268.558594 142.492188 266.433594 142.492188 C 264.304688 142.492188 262.265625 141.648438 260.761719 140.144531 C 259.261719 138.640625 258.414062 136.601562 258.414062 134.476562 C 258.414062 132.351562 259.261719 130.3125 260.761719 128.808594 C 262.265625 127.304688 264.304688 126.460938 266.433594 126.460938 C 268.558594 126.460938 270.597656 127.304688 272.101562 128.808594 C 273.605469 130.3125 274.449219 132.351562 274.449219 134.476562 Z M 274.449219 134.476562 "/>
<path style=" stroke:none;fill-rule:evenodd;fill:rgb(19.559014%,73.463035%,62.74815%);fill-opacity:1;" d="M 274.449219 150.507812 C 274.449219 152.636719 273.605469 154.675781 272.101562 156.179688 C 270.597656 157.679688 268.558594 158.527344 266.433594 158.527344 C 264.304688 158.527344 262.265625 157.679688 260.761719 156.179688 C 259.261719 154.675781 258.414062 152.636719 258.414062 150.507812 C 258.414062 148.382812 259.261719 146.34375 260.761719 144.839844 C 262.265625 143.335938 264.304688 142.492188 266.433594 142.492188 C 268.558594 142.492188 270.597656 143.335938 272.101562 144.839844 C 273.605469 146.34375 274.449219 148.382812 274.449219 150.507812 Z M 274.449219 150.507812 "/>
<path style=" stroke:none;fill-rule:evenodd;fill:rgb(15.539788%,71.8822%,22.107271%);fill-opacity:1;" d="M 258.414062 125.21875 C 258.414062 129.800781 256.59375 134.195312 253.355469 137.433594 C 250.117188 140.671875 245.722656 142.492188 241.140625 142.492188 C 236.558594 142.492188 232.167969 140.671875 228.925781 137.433594 C 225.6875 134.195312 223.867188 129.800781 223.867188 125.21875 C 223.867188 120.636719 225.6875 116.242188 228.925781 113.003906 C 232.167969 109.765625 236.558594 107.945312 241.140625 107.945312 C 245.722656 107.945312 250.117188 109.765625 253.355469 113.003906 C 256.59375 116.242188 258.414062 120.636719 258.414062 125.21875 Z M 258.414062 125.21875 "/>
<path style=" stroke:none;fill-rule:evenodd;fill:rgb(15.861753%,64.484627%,35.286488%);fill-opacity:1;" d="M 258.414062 125.21875 C 258.414062 127.34375 257.570312 129.382812 256.066406 130.886719 C 254.5625 132.390625 252.523438 133.234375 250.398438 133.234375 C 248.273438 133.234375 246.234375 132.390625 244.730469 130.886719 C 243.226562 129.382812 242.382812 127.34375 242.382812 125.21875 C 242.382812 123.09375 243.226562 121.054688 244.730469 119.550781 C 246.234375 118.046875 248.273438 117.203125 250.398438 117.203125 C 252.523438 117.203125 254.5625 118.046875 256.066406 119.550781 C 257.570312 121.054688 258.414062 123.09375 258.414062 125.21875 Z M 258.414062 125.21875 "/>
<path style=" stroke:none;fill-rule:evenodd;fill:rgb(63.42565%,77.860685%,5.770962%);fill-opacity:1;" d="M 244.53125 117.203125 C 244.53125 119.328125 243.683594 121.367188 242.183594 122.871094 C 240.679688 124.375 238.640625 125.21875 236.511719 125.21875 C 234.386719 125.21875 232.347656 124.375 230.84375 122.871094 C 229.339844 121.367188 228.496094 119.328125 228.496094 117.203125 C 228.496094 115.074219 229.339844 113.035156 230.84375 111.535156 C 232.347656 110.03125 234.386719 109.183594 236.511719 109.183594 C 238.640625 109.183594 240.679688 110.03125 242.183594 111.535156 C 243.683594 113.035156 244.53125 115.074219 244.53125 117.203125 Z M 244.53125 117.203125 "/>
<path style=" stroke:none;fill-rule:evenodd;fill:rgb(26.796368%,63.295949%,6.128023%);fill-opacity:1;" d="M 244.53125 133.234375 C 244.53125 135.363281 243.683594 137.402344 242.183594 138.90625 C 240.679688 140.40625 238.640625 141.253906 236.511719 141.253906 C 234.386719 141.253906 232.347656 140.40625 230.84375 138.90625 C 229.339844 137.402344 228.496094 135.363281 228.496094 133.234375 C 228.496094 131.109375 229.339844 129.070312 230.84375 127.566406 C 232.347656 126.0625 234.386719 125.21875 236.511719 125.21875 C 238.640625 125.21875 240.679688 126.0625 242.183594 127.566406 C 243.683594 129.070312 244.53125 131.109375 244.53125 133.234375 Z M 244.53125 133.234375 "/>
<path style=" stroke:none;fill-rule:evenodd;fill:rgb(75.519951%,62.732891%,92.225528%);fill-opacity:1;" d="M 258.414062 159.765625 C 258.414062 164.347656 256.59375 168.742188 253.355469 171.980469 C 250.117188 175.21875 245.722656 177.039062 241.140625 177.039062 C 236.558594 177.039062 232.167969 175.21875 228.925781 171.980469 C 225.6875 168.742188 223.867188 164.347656 223.867188 159.765625 C 223.867188 155.183594 225.6875 150.792969 228.925781 147.550781 C 232.167969 144.3125 236.558594 142.492188 241.140625 142.492188 C 245.722656 142.492188 250.117188 144.3125 253.355469 147.550781 C 256.59375 150.792969 258.414062 155.183594 258.414062 159.765625 Z M 258.414062 159.765625 "/>
<path style=" stroke:none;fill-rule:evenodd;fill:rgb(56.731518%,80.463874%,55.014878%);fill-opacity:1;" d="M 258.414062 159.765625 C 258.414062 161.890625 257.570312 163.929688 256.066406 165.433594 C 254.5625 166.9375 252.523438 167.78125 250.398438 167.78125 C 248.273438 167.78125 246.234375 166.9375 244.730469 165.433594 C 243.226562 163.929688 242.382812 161.890625 242.382812 159.765625 C 242.382812 157.640625 243.226562 155.601562 244.730469 154.097656 C 246.234375 152.59375 248.273438 151.75 250.398438 151.75 C 252.523438 151.75 254.5625 152.59375 256.066406 154.097656 C 257.570312 155.601562 258.414062 157.640625 258.414062 159.765625 Z M 258.414062 159.765625 "/>
<path style=" stroke:none;fill-rule:evenodd;fill:rgb(30.307469%,95.672541%,75.779355%);fill-opacity:1;" d="M 244.53125 151.75 C 244.53125 153.875 243.683594 155.914062 242.183594 157.417969 C 240.679688 158.921875 238.640625 159.765625 236.511719 159.765625 C 234.386719 159.765625 232.347656 158.921875 230.84375 157.417969 C 229.339844 155.914062 228.496094 153.875 228.496094 151.75 C 228.496094 149.625 229.339844 147.585938 230.84375 146.082031 C 232.347656 144.578125 234.386719 143.734375 236.511719 143.734375 C 238.640625 143.734375 240.679688 144.578125 242.183594 146.082031 C 243.683594 147.585938 244.53125 149.625 244.53125 151.75 Z M 244.53125 151.75 "/>
<path style=" stroke:none;fill-rule:evenodd;fill:rgb(31.911192%,49.176776%,40.021363%);fill-opacity:1;" d="M 244.53125 167.78125 C 244.53125 169.910156 243.683594 171.949219 242.183594 173.453125 C 240.679688 174.953125 238.640625 175.800781 236.511719 175.800781 C 234.386719 175.800781 232.347656 174.953125 230.84375 173.453125 C 229.339844 171.949219 228.496094 169.910156 228.496094 167.78125 C 228.496094 165.65625 229.339844 163.617188 230.84375 162.113281 C 232.347656 160.609375 234.386719 159.765625 236.511719 159.765625 C 238.640625 159.765625 240.679688 160.609375 242.183594 162.113281 C 243.683594 163.617188 244.53125 165.65625 244.53125 167.78125 Z M 244.53125 167.78125 "/>
<path style=" stroke:none;fill-rule:evenodd;fill:rgb(29.231708%,91.05211%,98.284886%);fill-opacity:1;" d="M 288.335938 216.929688 C 288.335938 226.800781 284.414062 236.269531 277.433594 243.25 C 270.453125 250.230469 260.984375 254.152344 251.113281 254.152344 C 241.242188 254.152344 231.777344 250.230469 224.796875 243.25 C 217.816406 236.269531 213.894531 226.800781 213.894531 216.929688 C 213.894531 207.058594 217.816406 197.59375 224.796875 190.613281 C 231.777344 183.632812 241.242188 179.710938 251.113281 179.710938 C 260.984375 179.710938 270.453125 183.632812 277.433594 190.613281 C 284.414062 197.59375 288.335938 207.058594 288.335938 216.929688 Z M 288.335938 216.929688 "/>
<path style=" stroke:none;fill-rule:evenodd;fill:rgb(25.816739%,55.016403%,66.64683%);fill-opacity:1;" d="M 288.335938 216.929688 C 288.335938 221.511719 286.515625 225.90625 283.273438 229.144531 C 280.035156 232.386719 275.640625 234.203125 271.058594 234.203125 C 266.480469 234.203125 262.085938 232.386719 258.847656 229.144531 C 255.605469 225.90625 253.785156 221.511719 253.785156 216.929688 C 253.785156 212.351562 255.605469 207.957031 258.847656 204.71875 C 262.085938 201.476562 266.480469 199.65625 271.058594 199.65625 C 275.640625 199.65625 280.035156 201.476562 283.273438 204.71875 C 286.515625 207.957031 288.335938 212.351562 288.335938 216.929688 Z M 288.335938 216.929688 "/>
<path style=" stroke:none;fill-rule:evenodd;fill:rgb(83.654536%,73.095293%,46.814679%);fill-opacity:1;" d="M 288.335938 216.929688 C 288.335938 219.058594 287.488281 221.097656 285.984375 222.601562 C 284.484375 224.105469 282.445312 224.949219 280.316406 224.949219 C 278.191406 224.949219 276.152344 224.105469 274.648438 222.601562 C 273.144531 221.097656 272.300781 219.058594 272.300781 216.929688 C 272.300781 214.804688 273.144531 212.765625 274.648438 211.261719 C 276.152344 209.757812 278.191406 208.914062 280.316406 208.914062 C 282.445312 208.914062 284.484375 209.757812 285.984375 211.261719 C 287.488281 212.765625 288.335938 214.804688 288.335938 216.929688 Z M 288.335938 216.929688 "/>
<path style=" stroke:none;fill-rule:evenodd;fill:rgb(52.097353%,1.782254%,94.94316%);fill-opacity:1;" d="M 274.449219 208.914062 C 274.449219 211.039062 273.605469 213.078125 272.101562 214.582031 C 270.597656 216.085938 268.558594 216.929688 266.433594 216.929688 C 264.304688 216.929688 262.265625 216.085938 260.761719 214.582031 C 259.261719 213.078125 258.414062 211.039062 258.414062 208.914062 C 258.414062 206.789062 259.261719 204.75 260.761719 203.246094 C 262.265625 201.742188 264.304688 200.898438 266.433594 200.898438 C 268.558594 200.898438 270.597656 201.742188 272.101562 203.246094 C 273.605469 204.75 274.449219 206.789062 274.449219 208.914062 Z M 274.449219 208.914062 "/>
<path style=" stroke:none;fill-rule:evenodd;fill:rgb(79.867247%,50.650797%,84.129091%);fill-opacity:1;" d="M 274.449219 224.949219 C 274.449219 227.074219 273.605469 229.113281 272.101562 230.617188 C 270.597656 232.121094 268.558594 232.964844 266.433594 232.964844 C 264.304688 232.964844 262.265625 232.121094 260.761719 230.617188 C 259.261719 229.113281 258.414062 227.074219 258.414062 224.949219 C 258.414062 222.820312 259.261719 220.78125 260.761719 219.28125 C 262.265625 217.777344 264.304688 216.929688 266.433594 216.929688 C 268.558594 216.929688 270.597656 217.777344 272.101562 219.28125 C 273.605469 220.78125 274.449219 222.820312 274.449219 224.949219 Z M 274.449219 224.949219 "/>
<path style=" stroke:none;fill-rule:evenodd;fill:rgb(42.818341%,26.829938%,1.126116%);fill-opacity:1;" d="M 258.414062 199.65625 C 258.414062 204.238281 256.59375 208.632812 253.355469 211.871094 C 250.117188 215.113281 245.722656 216.929688 241.140625 216.929688 C 236.558594 216.929688 232.167969 215.113281 228.925781 211.871094 C 225.6875 208.632812 223.867188 204.238281 223.867188 199.65625 C 223.867188 195.078125 225.6875 190.683594 228.925781 187.445312 C 232.167969 184.203125 236.558594 182.382812 241.140625 182.382812 C 245.722656 182.382812 250.117188 184.203125 253.355469 187.445312 C 256.59375 190.683594 258.414062 195.078125 258.414062 199.65625 Z M 258.414062 199.65625 "/>
<path style=" stroke:none;fill-rule:evenodd;fill:rgb(21.992828%,52.581064%,67.273976%);fill-opacity:1;" d="M 258.414062 199.65625 C 258.414062 201.785156 257.570312 203.824219 256.066406 205.328125 C 254.5625 206.828125 252.523438 207.675781 250.398438 207.675781 C 248.273438 207.675781 246.234375 206.828125 244.730469 205.328125 C 243.226562 203.824219 242.382812 201.785156 242.382812 199.65625 C 242.382812 197.53125 243.226562 195.492188 244.730469 193.988281 C 246.234375 192.484375 248.273438 191.640625 250.398438 191.640625 C 252.523438 191.640625 254.5625 192.484375 256.066406 193.988281 C 257.570312 195.492188 258.414062 197.53125 258.414062 199.65625 Z M 258.414062 199.65625 "/>
<path style=" stroke:none;fill-rule:evenodd;fill:rgb(11.273365%,76.88716%,65.572595%);fill-opacity:1;" d="M 244.53125 191.640625 C 244.53125 193.765625 243.683594 195.804688 242.183594 197.308594 C 240.679688 198.8125 238.640625 199.65625 236.511719 199.65625 C 234.386719 199.65625 232.347656 198.8125 230.84375 197.308594 C 229.339844 195.804688 228.496094 193.765625 228.496094 191.640625 C 228.496094 189.515625 229.339844 187.476562 230.84375 185.972656 C 232.347656 184.46875 234.386719 183.625 236.511719 183.625 C 238.640625 183.625 240.679688 184.46875 242.183594 185.972656 C 243.683594 187.476562 244.53125 189.515625 244.53125 191.640625 Z M 244.53125 191.640625 "/>
<path style=" stroke:none;fill-rule:evenodd;fill:rgb(79.423209%,27.675288%,93.821622%);fill-opacity:1;" d="M 244.53125 207.675781 C 244.53125 209.800781 243.683594 211.839844 242.183594 213.34375 C 240.679688 214.847656 238.640625 215.691406 236.511719 215.691406 C 234.386719 215.691406 232.347656 214.847656 230.84375 213.34375 C 229.339844 211.839844 228.496094 209.800781 228.496094 207.675781 C 228.496094 205.546875 229.339844 203.507812 230.84375 202.007812 C 232.347656 200.503906 234.386719 199.65625 236.511719 199.65625 C 238.640625 199.65625 240.679688 200.503906 242.183594 202.007812 C 243.683594 203.507812 244.53125 205.546875 244.53125 207.675781 Z M 244.53125 207.675781 "/>
<path style=" stroke:none;fill-rule:evenodd;fill:rgb(23.471427%,63.105211%,60.440986%);fill-opacity:1;" d="M 258.414062 234.203125 C 258.414062 238.785156 256.59375 243.179688 253.355469 246.417969 C 250.117188 249.660156 245.722656 251.480469 241.140625 251.480469 C 236.558594 251.480469 232.167969 249.660156 228.925781 246.417969 C 225.6875 243.179688 223.867188 238.785156 223.867188 234.203125 C 223.867188 229.625 225.6875 225.230469 228.925781 221.992188 C 232.167969 218.75 236.558594 216.929688 241.140625 216.929688 C 245.722656 216.929688 250.117188 218.75 253.355469 221.992188 C 256.59375 225.230469 258.414062 229.625 258.414062 234.203125 Z M 258.414062 234.203125 "/>
<path style=" stroke:none;fill-rule:evenodd;fill:rgb(72.73518%,26.446937%,34.47776%);fill-opacity:1;" d="M 258.414062 234.203125 C 258.414062 236.332031 257.570312 238.371094 256.066406 239.875 C 254.5625 241.378906 252.523438 242.222656 250.398438 242.222656 C 248.273438 242.222656 246.234375 241.378906 244.730469 239.875 C 243.226562 238.371094 242.382812 236.332031 242.382812 234.203125 C 242.382812 232.078125 243.226562 230.039062 244.730469 228.535156 C 246.234375 227.03125 248.273438 226.1875 250.398438 226.1875 C 252.523438 226.1875 254.5625 227.03125 256.066406 228.535156 C 257.570312 230.039062 258.414062 232.078125 258.414062 234.203125 Z M 258.414062 234.203125 "/>
<path style=" stroke:none;fill-rule:evenodd;fill:rgb(91.387808%,85.99527%,8.647288%);fill-opacity:1;" d="M 244.53125 226.1875 C 244.53125 228.316406 243.683594 230.355469 242.183594 231.855469 C 240.679688 233.359375 238.640625 234.203125 236.511719 234.203125 C 234.386719 234.203125 232.347656 233.359375 230.84375 231.855469 C 229.339844 230.355469 228.496094 228.316406 228.496094 226.1875 C 228.496094 224.0625 229.339844 222.023438 230.84375 220.519531 C 232.347656 219.015625 234.386719 218.171875 236.511719 218.171875 C 238.640625 218.171875 240.679688 219.015625 242.183594 220.519531 C 243.683594 222.023438 244.53125 224.0625 244.53125 226.1875 Z M 244.53125 226.1875 "/>
<path style=" stroke:none;fill-rule:evenodd;fill:rgb(97.766079%,8.14374%,39.351492%);fill-opacity:1;" d="M 244.53125 242.222656 C 244.53125 244.347656 243.683594 246.386719 242.183594 247.890625 C 240.679688 249.394531 238.640625 250.238281 236.511719 250.238281 C 234.386719 250.238281 232.347656 249.394531 230.84375 247.890625 C 229.339844 246.386719 228.496094 244.347656 228.496094 242.222656 C 228.496094 240.09375 229.339844 238.054688 230.84375 236.554688 C 232.347656 235.050781 234.386719 234.203125 236.511719 234.203125 C 238.640625 234.203125 240.679688 235.050781 242.183594 236.554688 C 243.683594 238.054688 244.53125 240.09375 244.53125 242.222656 Z M 244.53125 242.222656 "/>
<path style=" stroke:none;fill-rule:evenodd;fill:rgb(18.509194%,86.54612%,80.065614%);fill-opacity:1;" d="M 213.894531 99.515625 C 213.894531 120.785156 205.445312 141.183594 190.40625 156.222656 C 175.367188 171.261719 154.96875 179.710938 133.699219 179.710938 C 112.429688 179.710938 92.03125 171.261719 76.992188 156.222656 C 61.949219 141.183594 53.5 120.785156 53.5 99.515625 C 53.5 78.246094 61.949219 57.847656 76.992188 42.808594 C 92.03125 27.769531 112.429688 19.320312 133.699219 19.320312 C 154.96875 19.320312 175.367188 27.769531 190.40625 42.808594 C 205.445312 57.847656 213.894531 78.246094 213.894531 99.515625 Z M 213.894531 99.515625 "/>
<path style=" stroke:none;fill-rule:evenodd;fill:rgb(35.048447%,89.628443%,95.452811%);fill-opacity:1;" d="M 213.894531 99.515625 C 213.894531 109.386719 209.972656 118.851562 202.992188 125.832031 C 196.015625 132.8125 186.546875 136.734375 176.675781 136.734375 C 166.804688 136.734375 157.335938 132.8125 150.359375 125.832031 C 143.378906 118.851562 139.457031 109.386719 139.457031 99.515625 C 139.457031 89.644531 143.378906 80.175781 150.359375 73.195312 C 157.335938 66.21875 166.804688 62.296875 176.675781 62.296875 C 186.546875 62.296875 196.015625 66.21875 202.992188 73.195312 C 209.972656 80.175781 213.894531 89.644531 213.894531 99.515625 Z M 213.894531 99.515625 "/>
<path style=" stroke:none;fill-rule:evenodd;fill:rgb(18.187228%,45.499351%,47.000839%);fill-opacity:1;" d="M 213.894531 99.515625 C 213.894531 104.097656 212.074219 108.488281 208.835938 111.730469 C 205.597656 114.96875 201.203125 116.789062 196.621094 116.789062 C 192.039062 116.789062 187.648438 114.96875 184.40625 111.730469 C 181.167969 108.488281 179.347656 104.097656 179.347656 99.515625 C 179.347656 94.933594 181.167969 90.539062 184.40625 87.300781 C 187.648438 84.0625 192.039062 82.242188 196.621094 82.242188 C 201.203125 82.242188 205.597656 84.0625 208.835938 87.300781 C 212.074219 90.539062 213.894531 94.933594 213.894531 99.515625 Z M 213.894531 99.515625 "/>
<path style=" stroke:none;fill-rule:evenodd;fill:rgb(17.528038%,45.503929%,2.787823%);fill-opacity:1;" d="M 213.894531 99.515625 C 213.894531 101.640625 213.050781 103.679688 211.546875 105.183594 C 210.042969 106.6875 208.003906 107.53125 205.878906 107.53125 C 203.753906 107.53125 201.714844 106.6875 200.210938 105.183594 C 198.707031 103.679688 197.863281 101.640625 197.863281 99.515625 C 197.863281 97.390625 198.707031 95.351562 200.210938 93.847656 C 201.714844 92.34375 203.753906 91.5 205.878906 91.5 C 208.003906 91.5 210.042969 92.34375 211.546875 93.847656 C 213.050781 95.351562 213.894531 97.390625 213.894531 99.515625 Z M 213.894531 99.515625 "/>
<path style=" stroke:none;fill-rule:evenodd;fill:rgb(95.625238%,53.199054%,18.019379%);fill-opacity:1;" d="M 200.011719 91.5 C 200.011719 93.625 199.164062 95.664062 197.660156 97.167969 C 196.160156 98.671875 194.121094 99.515625 191.992188 99.515625 C 189.867188 99.515625 187.828125 98.671875 186.324219 97.167969 C 184.820312 95.664062 183.976562 93.625 183.976562 91.5 C 183.976562 89.371094 184.820312 87.332031 186.324219 85.828125 C 187.828125 84.328125 189.867188 83.480469 191.992188 83.480469 C 194.121094 83.480469 196.160156 84.328125 197.660156 85.828125 C 199.164062 87.332031 200.011719 89.371094 200.011719 91.5 Z M 200.011719 91.5 "/>
<path style=" stroke:none;fill-rule:evenodd;fill:rgb(41.535058%,51.566339%,79.050889%);fill-opacity:1;" d="M 200.011719 107.53125 C 200.011719 109.65625 199.164062 111.695312 197.660156 113.199219 C 196.160156 114.703125 194.121094 115.546875 191.992188 115.546875 C 189.867188 115.546875 187.828125 114.703125 186.324219 113.199219 C 184.820312 111.695312 183.976562 109.65625 183.976562 107.53125 C 183.976562 105.40625 184.820312 103.367188 186.324219 101.863281 C 187.828125 100.359375 189.867188 99.515625 191.992188 99.515625 C 194.121094 99.515625 196.160156 100.359375 197.660156 101.863281 C 199.164062 103.367188 200.011719 105.40625 200.011719 107.53125 Z M 200.011719 107.53125 "/>
<path style=" stroke:none;fill-rule:evenodd;fill:rgb(88.645762%,97.895781%,67.643244%);fill-opacity:1;" d="M 183.976562 82.242188 C 183.976562 86.824219 182.15625 91.214844 178.917969 94.457031 C 175.675781 97.695312 171.285156 99.515625 166.703125 99.515625 C 162.121094 99.515625 157.726562 97.695312 154.488281 94.457031 C 151.25 91.214844 149.429688 86.824219 149.429688 82.242188 C 149.429688 77.660156 151.25 73.265625 154.488281 70.027344 C 157.726562 66.789062 162.121094 64.96875 166.703125 64.96875 C 171.285156 64.96875 175.675781 66.789062 178.917969 70.027344 C 182.15625 73.265625 183.976562 77.660156 183.976562 82.242188 Z M 183.976562 82.242188 "/>
<path style=" stroke:none;fill-rule:evenodd;fill:rgb(35.580987%,49.626917%,59.163806%);fill-opacity:1;" d="M 183.976562 82.242188 C 183.976562 84.367188 183.132812 86.40625 181.628906 87.910156 C 180.125 89.414062 178.085938 90.257812 175.960938 90.257812 C 173.832031 90.257812 171.792969 89.414062 170.289062 87.910156 C 168.789062 86.40625 167.941406 84.367188 167.941406 82.242188 C 167.941406 80.117188 168.789062 78.078125 170.289062 76.574219 C 171.792969 75.070312 173.832031 74.226562 175.960938 74.226562 C 178.085938 74.226562 180.125 75.070312 181.628906 76.574219 C 183.132812 78.078125 183.976562 80.117188 183.976562 82.242188 Z M 183.976562 82.242188 "/>
<path style=" stroke:none;fill-rule:evenodd;fill:rgb(38.178073%,32.333867%,72.893874%);fill-opacity:1;" d="M 170.089844 74.226562 C 170.089844 76.351562 169.246094 78.390625 167.742188 79.894531 C 166.238281 81.398438 164.199219 82.242188 162.074219 82.242188 C 159.949219 82.242188 157.910156 81.398438 156.40625 79.894531 C 154.902344 78.390625 154.058594 76.351562 154.058594 74.226562 C 154.058594 72.097656 154.902344 70.058594 156.40625 68.554688 C 157.910156 67.054688 159.949219 66.207031 162.074219 66.207031 C 164.199219 66.207031 166.238281 67.054688 167.742188 68.554688 C 169.246094 70.058594 170.089844 72.097656 170.089844 74.226562 Z M 170.089844 74.226562 "/>
<path style=" stroke:none;fill-rule:evenodd;fill:rgb(27.925536%,19.641413%,67.197681%);fill-opacity:1;" d="M 170.089844 90.257812 C 170.089844 92.382812 169.246094 94.421875 167.742188 95.925781 C 166.238281 97.429688 164.199219 98.273438 162.074219 98.273438 C 159.949219 98.273438 157.910156 97.429688 156.40625 95.925781 C 154.902344 94.421875 154.058594 92.382812 154.058594 90.257812 C 154.058594 88.132812 154.902344 86.09375 156.40625 84.589844 C 157.910156 83.085938 159.949219 82.242188 162.074219 82.242188 C 164.199219 82.242188 166.238281 83.085938 167.742188 84.589844 C 169.246094 86.09375 170.089844 88.132812 170.089844 90.257812 Z M 170.089844 90.257812 "/>
<path style=" stroke:none;fill-rule:evenodd;fill:rgb(1.765469%,23.138781%,91.529717%);fill-opacity:1;" d="M 183.976562 116.789062 C 183.976562 121.371094 182.15625 125.765625 178.917969 129.003906 C 175.675781 132.242188 171.285156 134.0625 166.703125 134.0625 C 162.121094 134.0625 157.726562 132.242188 154.488281 129.003906 C 151.25 125.765625 149.429688 121.371094 149.429688 116.789062 C 149.429688 112.207031 151.25 107.8125 154.488281 104.574219 C 157.726562 101.335938 162.121094 99.515625 166.703125 99.515625 C 171.285156 99.515625 175.675781 101.335938 178.917969 104.574219 C 182.15625 107.8125 183.976562 112.207031 183.976562 116.789062 Z M 183.976562 116.789062 "/>
<path style=" stroke:none;fill-rule:evenodd;fill:rgb(6.752117%,54.450294%,37.256428%);fill-opacity:1;" d="M 183.976562 116.789062 C 183.976562 118.914062 183.132812 120.953125 181.628906 122.457031 C 180.125 123.960938 178.085938 124.804688 175.960938 124.804688 C 173.832031 124.804688 171.792969 123.960938 170.289062 122.457031 C 168.789062 120.953125 167.941406 118.914062 167.941406 116.789062 C 167.941406 114.664062 168.789062 112.625 170.289062 111.121094 C 171.792969 109.617188 173.832031 108.773438 175.960938 108.773438 C 178.085938 108.773438 180.125 109.617188 181.628906 111.121094 C 183.132812 112.625 183.976562 114.664062 183.976562 116.789062 Z M 183.976562 116.789062 "/>
<path style=" stroke:none;fill-rule:evenodd;fill:rgb(11.279469%,85.590906%,2.891585%);fill-opacity:1;" d="M 170.089844 108.773438 C 170.089844 110.898438 169.246094 112.9375 167.742188 114.441406 C 166.238281 115.945312 164.199219 116.789062 162.074219 116.789062 C 159.949219 116.789062 157.910156 115.945312 156.40625 114.441406 C 154.902344 112.9375 154.058594 110.898438 154.058594 108.773438 C 154.058594 106.644531 154.902344 104.605469 156.40625 103.101562 C 157.910156 101.601562 159.949219 100.753906 162.074219 100.753906 C 164.199219 100.753906 166.238281 101.601562 167.742188 103.101562 C 169.246094 104.605469 170.089844 106.644531 170.089844 108.773438 Z M 170.089844 108.773438 "/>
<path style=" stroke:none;fill-rule:evenodd;fill:rgb(69.701686%,16.911574%,22.597086%);fill-opacity:1;" d="M 170.089844 124.804688 C 170.089844 126.933594 169.246094 128.972656 167.742188 130.472656 C 166.238281 131.976562 164.199219 132.820312 162.074219 132.820312 C 159.949219 132.820312 157.910156 131.976562 156.40625 130.472656 C 154.902344 128.972656 154.058594 126.933594 154.058594 124.804688 C 154.058594 122.679688 154.902344 120.640625 156.40625 119.136719 C 157.910156 117.632812 159.949219 116.789062 162.074219 116.789062 C 164.199219 116.789062 166.238281 117.632812 167.742188 119.136719 C 169.246094 120.640625 170.089844 122.679688 170.089844 124.804688 Z M 170.089844 124.804688 "/>
<path style=" stroke:none;fill-rule:evenodd;fill:rgb(91.740291%,53.521019%,58.785382%);fill-opacity:1;" d="M 149.429688 62.296875 C 149.429688 72.167969 145.507812 81.632812 138.527344 88.613281 C 131.546875 95.59375 122.082031 99.515625 112.210938 99.515625 C 102.339844 99.515625 92.871094 95.59375 85.890625 88.613281 C 78.910156 81.632812 74.992188 72.167969 74.992188 62.296875 C 74.992188 52.425781 78.910156 42.957031 85.890625 35.976562 C 92.871094 28.996094 102.339844 25.078125 112.210938 25.078125 C 122.082031 25.078125 131.546875 28.996094 138.527344 35.976562 C 145.507812 42.957031 149.429688 52.425781 149.429688 62.296875 Z M 149.429688 62.296875 "/>
<path style=" stroke:none;fill-rule:evenodd;fill:rgb(40.872816%,70.17319%,19.56054%);fill-opacity:1;" d="M 149.429688 62.296875 C 149.429688 66.878906 147.609375 71.269531 144.371094 74.511719 C 141.128906 77.75 136.738281 79.570312 132.15625 79.570312 C 127.574219 79.570312 123.179688 77.75 119.941406 74.511719 C 116.703125 71.269531 114.882812 66.878906 114.882812 62.296875 C 114.882812 57.714844 116.703125 53.320312 119.941406 50.082031 C 123.179688 46.84375 127.574219 45.023438 132.15625 45.023438 C 136.738281 45.023438 141.128906 46.84375 144.371094 50.082031 C 147.609375 53.320312 149.429688 57.714844 149.429688 62.296875 Z M 149.429688 62.296875 "/>
<path style=" stroke:none;fill-rule:evenodd;fill:rgb(53.093767%,20.288396%,14.073396%);fill-opacity:1;" d="M 149.429688 62.296875 C 149.429688 64.421875 148.585938 66.460938 147.082031 67.964844 C 145.578125 69.46875 143.539062 70.3125 141.414062 70.3125 C 139.285156 70.3125 137.246094 69.46875 135.742188 67.964844 C 134.242188 66.460938 133.394531 64.421875 133.394531 62.296875 C 133.394531 60.167969 134.242188 58.128906 135.742188 56.628906 C 137.246094 55.125 139.285156 54.277344 141.414062 54.277344 C 143.539062 54.277344 145.578125 55.125 147.082031 56.628906 C 148.585938 58.128906 149.429688 60.167969 149.429688 62.296875 Z M 149.429688 62.296875 "/>
<path style=" stroke:none;fill-rule:evenodd;fill:rgb(16.411078%,33.775845%,45.613794%);fill-opacity:1;" d="M 135.542969 54.277344 C 135.542969 56.40625 134.699219 58.445312 133.195312 59.949219 C 131.691406 61.453125 129.652344 62.296875 127.527344 62.296875 C 125.402344 62.296875 123.363281 61.453125 121.859375 59.949219 C 120.355469 58.445312 119.511719 56.40625 119.511719 54.277344 C 119.511719 52.152344 120.355469 50.113281 121.859375 48.609375 C 123.363281 47.105469 125.402344 46.261719 127.527344 46.261719 C 129.652344 46.261719 131.691406 47.105469 133.195312 48.609375 C 134.699219 50.113281 135.542969 52.152344 135.542969 54.277344 Z M 135.542969 54.277344 "/>
<path style=" stroke:none;fill-rule:evenodd;fill:rgb(12.121767%,0.0854505%,64.122988%);fill-opacity:1;" d="M 135.542969 70.3125 C 135.542969 72.4375 134.699219 74.476562 133.195312 75.980469 C 131.691406 77.484375 129.652344 78.328125 127.527344 78.328125 C 125.402344 78.328125 123.363281 77.484375 121.859375 75.980469 C 120.355469 74.476562 119.511719 72.4375 119.511719 70.3125 C 119.511719 68.1875 120.355469 66.148438 121.859375 64.644531 C 123.363281 63.140625 125.402344 62.296875 127.527344 62.296875 C 129.652344 62.296875 131.691406 63.140625 133.195312 64.644531 C 134.699219 66.148438 135.542969 68.1875 135.542969 70.3125 Z M 135.542969 70.3125 "/>
<path style=" stroke:none;fill-rule:evenodd;fill:rgb(43.038071%,88.163577%,33.000687%);fill-opacity:1;" d="M 119.511719 45.023438 C 119.511719 49.601562 117.691406 53.996094 114.449219 57.238281 C 111.210938 60.476562 106.816406 62.296875 102.238281 62.296875 C 97.65625 62.296875 93.261719 60.476562 90.023438 57.238281 C 86.78125 53.996094 84.964844 49.601562 84.964844 45.023438 C 84.964844 40.441406 86.78125 36.046875 90.023438 32.808594 C 93.261719 29.570312 97.65625 27.75 102.238281 27.75 C 106.816406 27.75 111.210938 29.570312 114.449219 32.808594 C 117.691406 36.046875 119.511719 40.441406 119.511719 45.023438 Z M 119.511719 45.023438 "/>
<path style=" stroke:none;fill-rule:evenodd;fill:rgb(31.790646%,25.299458%,67.208362%);fill-opacity:1;" d="M 119.511719 45.023438 C 119.511719 47.148438 118.664062 49.1875 117.164062 50.691406 C 115.660156 52.195312 113.621094 53.039062 111.492188 53.039062 C 109.367188 53.039062 107.328125 52.195312 105.824219 50.691406 C 104.320312 49.1875 103.476562 47.148438 103.476562 45.023438 C 103.476562 42.894531 104.320312 40.855469 105.824219 39.355469 C 107.328125 37.851562 109.367188 37.003906 111.492188 37.003906 C 113.621094 37.003906 115.660156 37.851562 117.164062 39.355469 C 118.664062 40.855469 119.511719 42.894531 119.511719 45.023438 Z M 119.511719 45.023438 "/>
<path style=" stroke:none;fill-rule:evenodd;fill:rgb(91.709773%,38.744182%,38.632792%);fill-opacity:1;" d="M 105.625 37.003906 C 105.625 39.132812 104.78125 41.171875 103.277344 42.675781 C 101.773438 44.175781 99.734375 45.023438 97.609375 45.023438 C 95.480469 45.023438 93.441406 44.175781 91.941406 42.675781 C 90.4375 41.171875 89.589844 39.132812 89.589844 37.003906 C 89.589844 34.878906 90.4375 32.839844 91.941406 31.335938 C 93.441406 29.832031 95.480469 28.988281 97.609375 28.988281 C 99.734375 28.988281 101.773438 29.832031 103.277344 31.335938 C 104.78125 32.839844 105.625 34.878906 105.625 37.003906 Z M 105.625 37.003906 "/>
<path style=" stroke:none;fill-rule:evenodd;fill:rgb(74.871443%,58.44358%,43.767453%);fill-opacity:1;" d="M 105.625 53.039062 C 105.625 55.164062 104.78125 57.203125 103.277344 58.707031 C 101.773438 60.210938 99.734375 61.054688 97.609375 61.054688 C 95.480469 61.054688 93.441406 60.210938 91.941406 58.707031 C 90.4375 57.203125 89.589844 55.164062 89.589844 53.039062 C 89.589844 50.914062 90.4375 48.875 91.941406 47.371094 C 93.441406 45.867188 95.480469 45.023438 97.609375 45.023438 C 99.734375 45.023438 101.773438 45.867188 103.277344 47.371094 C 104.78125 48.875 105.625 50.914062 105.625 53.039062 Z M 105.625 53.039062 "/>
<path style=" stroke:none;fill-rule:evenodd;fill:rgb(22.90074%,75.191882%,83.672847%);fill-opacity:1;" d="M 119.511719 79.570312 C 119.511719 84.152344 117.691406 88.542969 114.449219 91.785156 C 111.210938 95.023438 106.816406 96.84375 102.238281 96.84375 C 97.65625 96.84375 93.261719 95.023438 90.023438 91.785156 C 86.78125 88.542969 84.964844 84.152344 84.964844 79.570312 C 84.964844 74.988281 86.78125 70.59375 90.023438 67.355469 C 93.261719 64.117188 97.65625 62.296875 102.238281 62.296875 C 106.816406 62.296875 111.210938 64.117188 114.449219 67.355469 C 117.691406 70.59375 119.511719 74.988281 119.511719 79.570312 Z M 119.511719 79.570312 "/>
<path style=" stroke:none;fill-rule:evenodd;fill:rgb(31.760128%,44.754711%,84.637217%);fill-opacity:1;" d="M 119.511719 79.570312 C 119.511719 81.695312 118.664062 83.734375 117.164062 85.238281 C 115.660156 86.742188 113.621094 87.585938 111.492188 87.585938 C 109.367188 87.585938 107.328125 86.742188 105.824219 85.238281 C 104.320312 83.734375 103.476562 81.695312 103.476562 79.570312 C 103.476562 77.441406 104.320312 75.402344 105.824219 73.902344 C 107.328125 72.398438 109.367188 71.550781 111.492188 71.550781 C 113.621094 71.550781 115.660156 72.398438 117.164062 73.902344 C 118.664062 75.402344 119.511719 77.441406 119.511719 79.570312 Z M 119.511719 79.570312 "/>
<path style=" stroke:none;fill-rule:evenodd;fill:rgb(8.36347%,21.058976%,52.95491%);fill-opacity:1;" d="M 105.625 71.550781 C 105.625 73.679688 104.78125 75.71875 103.277344 77.222656 C 101.773438 78.726562 99.734375 79.570312 97.609375 79.570312 C 95.480469 79.570312 93.441406 78.726562 91.941406 77.222656 C 90.4375 75.71875 89.589844 73.679688 89.589844 71.550781 C 89.589844 69.425781 90.4375 67.386719 91.941406 65.882812 C 93.441406 64.378906 95.480469 63.535156 97.609375 63.535156 C 99.734375 63.535156 101.773438 64.378906 103.277344 65.882812 C 104.78125 67.386719 105.625 69.425781 105.625 71.550781 Z M 105.625 71.550781 "/>
<path style=" stroke:none;fill-rule:evenodd;fill:rgb(32.825208%,15.91516%,65.983062%);fill-opacity:1;" d="M 105.625 87.585938 C 105.625 89.710938 104.78125 91.75 103.277344 93.253906 C 101.773438 94.757812 99.734375 95.601562 97.609375 95.601562 C 95.480469 95.601562 93.441406 94.757812 91.941406 93.253906 C 90.4375 91.75 89.589844 89.710938 89.589844 87.585938 C 89.589844 85.460938 90.4375 83.421875 91.941406 81.917969 C 93.441406 80.414062 95.480469 79.570312 97.609375 79.570312 C 99.734375 79.570312 101.773438 80.414062 103.277344 81.917969 C 104.78125 83.421875 105.625 85.460938 105.625 87.585938 Z M 105.625 87.585938 "/>
<path style=" stroke:none;fill-rule:evenodd;fill:rgb(80.109865%,86.631571%,90.934615%);fill-opacity:1;" d="M 149.429688 136.734375 C 149.429688 146.605469 145.507812 156.074219 138.527344 163.054688 C 131.546875 170.03125 122.082031 173.953125 112.210938 173.953125 C 102.339844 173.953125 92.871094 170.03125 85.890625 163.054688 C 78.910156 156.074219 74.992188 146.605469 74.992188 136.734375 C 74.992188 126.863281 78.910156 117.398438 85.890625 110.417969 C 92.871094 103.4375 102.339844 99.515625 112.210938 99.515625 C 122.082031 99.515625 131.546875 103.4375 138.527344 110.417969 C 145.507812 117.398438 149.429688 126.863281 149.429688 136.734375 Z M 149.429688 136.734375 "/>
<path style=" stroke:none;fill-rule:evenodd;fill:rgb(58.498512%,37.080949%,33.655299%);fill-opacity:1;" d="M 149.429688 136.734375 C 149.429688 141.316406 147.609375 145.710938 144.371094 148.949219 C 141.128906 152.1875 136.738281 154.007812 132.15625 154.007812 C 127.574219 154.007812 123.179688 152.1875 119.941406 148.949219 C 116.703125 145.710938 114.882812 141.316406 114.882812 136.734375 C 114.882812 132.152344 116.703125 127.761719 119.941406 124.519531 C 123.179688 121.28125 127.574219 119.460938 132.15625 119.460938 C 136.738281 119.460938 141.128906 121.28125 144.371094 124.519531 C 147.609375 127.761719 149.429688 132.152344 149.429688 136.734375 Z M 149.429688 136.734375 "/>
<path style=" stroke:none;fill-rule:evenodd;fill:rgb(4.917983%,92.115663%,82.255283%);fill-opacity:1;" d="M 149.429688 136.734375 C 149.429688 138.859375 148.585938 140.898438 147.082031 142.402344 C 145.578125 143.90625 143.539062 144.75 141.414062 144.75 C 139.285156 144.75 137.246094 143.90625 135.742188 142.402344 C 134.242188 140.898438 133.394531 138.859375 133.394531 136.734375 C 133.394531 134.609375 134.242188 132.570312 135.742188 131.066406 C 137.246094 129.5625 139.285156 128.71875 141.414062 128.71875 C 143.539062 128.71875 145.578125 129.5625 147.082031 131.066406 C 148.585938 132.570312 149.429688 134.609375 149.429688 136.734375 Z M 149.429688 136.734375 "/>
<path style=" stroke:none;fill-rule:evenodd;fill:rgb(38.442054%,0.360113%,27.646296%);fill-opacity:1;" d="M 135.542969 128.71875 C 135.542969 130.84375 134.699219 132.882812 133.195312 134.386719 C 131.691406 135.890625 129.652344 136.734375 127.527344 136.734375 C 125.402344 136.734375 123.363281 135.890625 121.859375 134.386719 C 120.355469 132.882812 119.511719 130.84375 119.511719 128.71875 C 119.511719 126.59375 120.355469 124.550781 121.859375 123.050781 C 123.363281 121.546875 125.402344 120.703125 127.527344 120.703125 C 129.652344 120.703125 131.691406 121.546875 133.195312 123.050781 C 134.699219 124.550781 135.542969 126.59375 135.542969 128.71875 Z M 135.542969 128.71875 "/>
<path style=" stroke:none;fill-rule:evenodd;fill:rgb(72.410163%,71.612116%,49.918364%);fill-opacity:1;" d="M 135.542969 144.75 C 135.542969 146.878906 134.699219 148.917969 133.195312 150.421875 C 131.691406 151.921875 129.652344 152.769531 127.527344 152.769531 C 125.402344 152.769531 123.363281 151.921875 121.859375 150.421875 C 120.355469 148.917969 119.511719 146.878906 119.511719 144.75 C 119.511719 142.625 120.355469 140.585938 121.859375 139.082031 C 123.363281 137.578125 125.402344 136.734375 127.527344 136.734375 C 129.652344 136.734375 131.691406 137.578125 133.195312 139.082031 C 134.699219 140.585938 135.542969 142.625 135.542969 144.75 Z M 135.542969 144.75 "/>
<path style=" stroke:none;fill-rule:evenodd;fill:rgb(65.070573%,2.68101%,10.722515%);fill-opacity:1;" d="M 119.511719 119.460938 C 119.511719 124.042969 117.691406 128.4375 114.449219 131.675781 C 111.210938 134.914062 106.816406 136.734375 102.238281 136.734375 C 97.65625 136.734375 93.261719 134.914062 90.023438 131.675781 C 86.78125 128.4375 84.964844 124.042969 84.964844 119.460938 C 84.964844 114.878906 86.78125 110.484375 90.023438 107.246094 C 93.261719 104.007812 97.65625 102.1875 102.238281 102.1875 C 106.816406 102.1875 111.210938 104.007812 114.449219 107.246094 C 117.691406 110.484375 119.511719 114.878906 119.511719 119.460938 Z M 119.511719 119.460938 "/>
<path style=" stroke:none;fill-rule:evenodd;fill:rgb(90.19913%,49.553674%,71.242847%);fill-opacity:1;" d="M 119.511719 119.460938 C 119.511719 121.585938 118.664062 123.625 117.164062 125.128906 C 115.660156 126.632812 113.621094 127.476562 111.492188 127.476562 C 109.367188 127.476562 107.328125 126.632812 105.824219 125.128906 C 104.320312 123.625 103.476562 121.585938 103.476562 119.460938 C 103.476562 117.335938 104.320312 115.296875 105.824219 113.792969 C 107.328125 112.289062 109.367188 111.445312 111.492188 111.445312 C 113.621094 111.445312 115.660156 112.289062 117.164062 113.792969 C 118.664062 115.296875 119.511719 117.335938 119.511719 119.460938 Z M 119.511719 119.460938 "/>
<path style=" stroke:none;fill-rule:evenodd;fill:rgb(31.775387%,95.07744%,46.086824%);fill-opacity:1;" d="M 105.625 111.445312 C 105.625 113.570312 104.78125 115.609375 103.277344 117.113281 C 101.773438 118.617188 99.734375 119.460938 97.609375 119.460938 C 95.480469 119.460938 93.441406 118.617188 91.941406 117.113281 C 90.4375 115.609375 89.589844 113.570312 89.589844 111.445312 C 89.589844 109.316406 90.4375 107.277344 91.941406 105.777344 C 93.441406 104.273438 95.480469 103.425781 97.609375 103.425781 C 99.734375 103.425781 101.773438 104.273438 103.277344 105.777344 C 104.78125 107.277344 105.625 109.316406 105.625 111.445312 Z M 105.625 111.445312 "/>
<path style=" stroke:none;fill-rule:evenodd;fill:rgb(8.632029%,45.30251%,31.659419%);fill-opacity:1;" d="M 105.625 127.476562 C 105.625 129.605469 104.78125 131.644531 103.277344 133.144531 C 101.773438 134.648438 99.734375 135.496094 97.609375 135.496094 C 95.480469 135.496094 93.441406 134.648438 91.941406 133.144531 C 90.4375 131.644531 89.589844 129.605469 89.589844 127.476562 C 89.589844 125.351562 90.4375 123.3125 91.941406 121.808594 C 93.441406 120.304688 95.480469 119.460938 97.609375 119.460938 C 99.734375 119.460938 101.773438 120.304688 103.277344 121.808594 C 104.78125 123.3125 105.625 125.351562 105.625 127.476562 Z M 105.625 127.476562 "/>
<path style=" stroke:none;fill-rule:evenodd;fill:rgb(27.486076%,6.143282%,8.860914%);fill-opacity:1;" d="M 119.511719 154.007812 C 119.511719 158.589844 117.691406 162.984375 114.449219 166.222656 C 111.210938 169.460938 106.816406 171.28125 102.238281 171.28125 C 97.65625 171.28125 93.261719 169.460938 90.023438 166.222656 C 86.78125 162.984375 84.964844 158.589844 84.964844 154.007812 C 84.964844 149.425781 86.78125 145.035156 90.023438 141.792969 C 93.261719 138.554688 97.65625 136.734375 102.238281 136.734375 C 106.816406 136.734375 111.210938 138.554688 114.449219 141.792969 C 117.691406 145.035156 119.511719 149.425781 119.511719 154.007812 Z M 119.511719 154.007812 "/>
<path style=" stroke:none;fill-rule:evenodd;fill:rgb(60.521859%,5.145342%,78.651102%);fill-opacity:1;" d="M 119.511719 154.007812 C 119.511719 156.132812 118.664062 158.171875 117.164062 159.675781 C 115.660156 161.179688 113.621094 162.023438 111.492188 162.023438 C 109.367188 162.023438 107.328125 161.179688 105.824219 159.675781 C 104.320312 158.171875 103.476562 156.132812 103.476562 154.007812 C 103.476562 151.882812 104.320312 149.84375 105.824219 148.339844 C 107.328125 146.835938 109.367188 145.992188 111.492188 145.992188 C 113.621094 145.992188 115.660156 146.835938 117.164062 148.339844 C 118.664062 149.84375 119.511719 151.882812 119.511719 154.007812 Z M 119.511719 154.007812 "/>
<path style=" stroke:none;fill-rule:evenodd;fill:rgb(91.641108%,51.036851%,85.558862%);fill-opacity:1;" d="M 105.625 145.992188 C 105.625 148.117188 104.78125 150.15625 103.277344 151.660156 C 101.773438 153.164062 99.734375 154.007812 97.609375 154.007812 C 95.480469 154.007812 93.441406 153.164062 91.941406 151.660156 C 90.4375 150.15625 89.589844 148.117188 89.589844 145.992188 C 89.589844 143.867188 90.4375 141.828125 91.941406 140.324219 C 93.441406 138.820312 95.480469 137.976562 97.609375 137.976562 C 99.734375 137.976562 101.773438 138.820312 103.277344 140.324219 C 104.78125 141.828125 105.625 143.867188 105.625 145.992188 Z M 105.625 145.992188 "/>
<path style=" stroke:none;fill-rule:evenodd;fill:rgb(13.116655%,23.677424%,60.003052%);fill-opacity:1;" d="M 105.625 162.023438 C 105.625 164.152344 104.78125 166.191406 103.277344 167.695312 C 101.773438 169.195312 99.734375 170.042969 97.609375 170.042969 C 95.480469 170.042969 93.441406 169.195312 91.941406 167.695312 C 90.4375 166.191406 89.589844 164.152344 89.589844 162.023438 C 89.589844 159.898438 90.4375 157.859375 91.941406 156.355469 C 93.441406 154.851562 95.480469 154.007812 97.609375 154.007812 C 99.734375 154.007812 101.773438 154.851562 103.277344 156.355469 C 104.78125 157.859375 105.625 159.898438 105.625 162.023438 Z M 105.625 162.023438 "/>
<path style=" stroke:none;fill-rule:evenodd;fill:rgb(98.937972%,0.250248%,71.023117%);fill-opacity:1;" d="M 213.894531 259.910156 C 213.894531 281.179688 205.445312 301.578125 190.40625 316.617188 C 175.367188 331.65625 154.96875 340.105469 133.699219 340.105469 C 112.429688 340.105469 92.03125 331.65625 76.992188 316.617188 C 61.949219 301.578125 53.5 281.179688 53.5 259.910156 C 53.5 238.640625 61.949219 218.242188 76.992188 203.199219 C 92.03125 188.160156 112.429688 179.710938 133.699219 179.710938 C 154.96875 179.710938 175.367188 188.160156 190.40625 203.199219 C 205.445312 218.242188 213.894531 238.640625 213.894531 259.910156 Z M 213.894531 259.910156 "/>
<path style=" stroke:none;fill-rule:evenodd;fill:rgb(76.441596%,33.470665%,7.164111%);fill-opacity:1;" d="M 213.894531 259.910156 C 213.894531 269.78125 209.972656 279.246094 202.992188 286.226562 C 196.015625 293.207031 186.546875 297.128906 176.675781 297.128906 C 166.804688 297.128906 157.335938 293.207031 150.359375 286.226562 C 143.378906 279.246094 139.457031 269.78125 139.457031 259.910156 C 139.457031 250.039062 143.378906 240.570312 150.359375 233.589844 C 157.335938 226.609375 166.804688 222.6875 176.675781 222.6875 C 186.546875 222.6875 196.015625 226.609375 202.992188 233.589844 C 209.972656 240.570312 213.894531 250.039062 213.894531 259.910156 Z M 213.894531 259.910156 "/>
<path style=" stroke:none;fill-rule:evenodd;fill:rgb(59.841306%,93.432517%,22.426184%);fill-opacity:1;" d="M 213.894531 259.910156 C 213.894531 264.488281 212.074219 268.882812 208.835938 272.121094 C 205.597656 275.363281 201.203125 277.183594 196.621094 277.183594 C 192.039062 277.183594 187.648438 275.363281 184.40625 272.121094 C 181.167969 268.882812 179.347656 264.488281 179.347656 259.910156 C 179.347656 255.328125 181.167969 250.933594 184.40625 247.695312 C 187.648438 244.453125 192.039062 242.636719 196.621094 242.636719 C 201.203125 242.636719 205.597656 244.453125 208.835938 247.695312 C 212.074219 250.933594 213.894531 255.328125 213.894531 259.910156 Z M 213.894531 259.910156 "/>
<path style=" stroke:none;fill-rule:evenodd;fill:rgb(93.342489%,89.965667%,92.138552%);fill-opacity:1;" d="M 213.894531 259.910156 C 213.894531 262.035156 213.050781 264.074219 211.546875 265.578125 C 210.042969 267.082031 208.003906 267.925781 205.878906 267.925781 C 203.753906 267.925781 201.714844 267.082031 200.210938 265.578125 C 198.707031 264.074219 197.863281 262.035156 197.863281 259.910156 C 197.863281 257.78125 198.707031 255.742188 200.210938 254.238281 C 201.714844 252.738281 203.753906 251.890625 205.878906 251.890625 C 208.003906 251.890625 210.042969 252.738281 211.546875 254.238281 C 213.050781 255.742188 213.894531 257.78125 213.894531 259.910156 Z M 213.894531 259.910156 "/>
<path style=" stroke:none;fill-rule:evenodd;fill:rgb(20.640879%,94.872969%,18.915084%);fill-opacity:1;" d="M 200.011719 251.890625 C 200.011719 254.019531 199.164062 256.058594 197.660156 257.5625 C 196.160156 259.0625 194.121094 259.910156 191.992188 259.910156 C 189.867188 259.910156 187.828125 259.0625 186.324219 257.5625 C 184.820312 256.058594 183.976562 254.019531 183.976562 251.890625 C 183.976562 249.765625 184.820312 247.726562 186.324219 246.222656 C 187.828125 244.71875 189.867188 243.875 191.992188 243.875 C 194.121094 243.875 196.160156 244.71875 197.660156 246.222656 C 199.164062 247.726562 200.011719 249.765625 200.011719 251.890625 Z M 200.011719 251.890625 "/>
<path style=" stroke:none;fill-rule:evenodd;fill:rgb(70.783551%,23.398184%,93.04036%);fill-opacity:1;" d="M 200.011719 267.925781 C 200.011719 270.050781 199.164062 272.089844 197.660156 273.59375 C 196.160156 275.097656 194.121094 275.941406 191.992188 275.941406 C 189.867188 275.941406 187.828125 275.097656 186.324219 273.59375 C 184.820312 272.089844 183.976562 270.050781 183.976562 267.925781 C 183.976562 265.800781 184.820312 263.761719 186.324219 262.257812 C 187.828125 260.753906 189.867188 259.910156 191.992188 259.910156 C 194.121094 259.910156 196.160156 260.753906 197.660156 262.257812 C 199.164062 263.761719 200.011719 265.800781 200.011719 267.925781 Z M 200.011719 267.925781 "/>
<path style=" stroke:none;fill-rule:evenodd;fill:rgb(87.94995%,38.912032%,75.245289%);fill-opacity:1;" d="M 183.976562 242.636719 C 183.976562 247.214844 182.15625 251.609375 178.917969 254.847656 C 175.675781 258.089844 171.285156 259.910156 166.703125 259.910156 C 162.121094 259.910156 157.726562 258.089844 154.488281 254.847656 C 151.25 251.609375 149.429688 247.214844 149.429688 242.636719 C 149.429688 238.054688 151.25 233.660156 154.488281 230.421875 C 157.726562 227.179688 162.121094 225.363281 166.703125 225.363281 C 171.285156 225.363281 175.675781 227.179688 178.917969 230.421875 C 182.15625 233.660156 183.976562 238.054688 183.976562 242.636719 Z M 183.976562 242.636719 "/>
<path style=" stroke:none;fill-rule:evenodd;fill:rgb(64.153506%,78.306249%,90.887312%);fill-opacity:1;" d="M 183.976562 242.636719 C 183.976562 244.761719 183.132812 246.800781 181.628906 248.304688 C 180.125 249.808594 178.085938 250.652344 175.960938 250.652344 C 173.832031 250.652344 171.792969 249.808594 170.289062 248.304688 C 168.789062 246.800781 167.941406 244.761719 167.941406 242.636719 C 167.941406 240.507812 168.789062 238.46875 170.289062 236.964844 C 171.792969 235.464844 173.832031 234.617188 175.960938 234.617188 C 178.085938 234.617188 180.125 235.464844 181.628906 236.964844 C 183.132812 238.46875 183.976562 240.507812 183.976562 242.636719 Z M 183.976562 242.636719 "/>
<path style=" stroke:none;fill-rule:evenodd;fill:rgb(51.195544%,47.663081%,59.423209%);fill-opacity:1;" d="M 170.089844 234.617188 C 170.089844 236.746094 169.246094 238.785156 167.742188 240.289062 C 166.238281 241.789062 164.199219 242.636719 162.074219 242.636719 C 159.949219 242.636719 157.910156 241.789062 156.40625 240.289062 C 154.902344 238.785156 154.058594 236.746094 154.058594 234.617188 C 154.058594 232.492188 154.902344 230.453125 156.40625 228.949219 C 157.910156 227.445312 159.949219 226.601562 162.074219 226.601562 C 164.199219 226.601562 166.238281 227.445312 167.742188 228.949219 C 169.246094 230.453125 170.089844 232.492188 170.089844 234.617188 Z M 170.089844 234.617188 "/>
<path style=" stroke:none;fill-rule:evenodd;fill:rgb(48.763256%,13.264668%,7.408255%);fill-opacity:1;" d="M 170.089844 250.652344 C 170.089844 252.777344 169.246094 254.816406 167.742188 256.320312 C 166.238281 257.824219 164.199219 258.667969 162.074219 258.667969 C 159.949219 258.667969 157.910156 257.824219 156.40625 256.320312 C 154.902344 254.816406 154.058594 252.777344 154.058594 250.652344 C 154.058594 248.527344 154.902344 246.488281 156.40625 244.984375 C 157.910156 243.480469 159.949219 242.636719 162.074219 242.636719 C 164.199219 242.636719 166.238281 243.480469 167.742188 244.984375 C 169.246094 246.488281 170.089844 248.527344 170.089844 250.652344 Z M 170.089844 250.652344 "/>
<path style=" stroke:none;fill-rule:evenodd;fill:rgb(64.721141%,76.272221%,0.105287%);fill-opacity:1;" d="M 183.976562 277.183594 C 183.976562 281.761719 182.15625 286.15625 178.917969 289.398438 C 175.675781 292.636719 171.285156 294.457031 166.703125 294.457031 C 162.121094 294.457031 157.726562 292.636719 154.488281 289.398438 C 151.25 286.15625 149.429688 281.761719 149.429688 277.183594 C 149.429688 272.601562 151.25 268.207031 154.488281 264.96875 C 157.726562 261.730469 162.121094 259.910156 166.703125 259.910156 C 171.285156 259.910156 175.675781 261.730469 178.917969 264.96875 C 182.15625 268.207031 183.976562 272.601562 183.976562 277.183594 Z M 183.976562 277.183594 "/>
<path style=" stroke:none;fill-rule:evenodd;fill:rgb(83.595026%,67.318227%,81.915007%);fill-opacity:1;" d="M 183.976562 277.183594 C 183.976562 279.308594 183.132812 281.347656 181.628906 282.851562 C 180.125 284.355469 178.085938 285.199219 175.960938 285.199219 C 173.832031 285.199219 171.792969 284.355469 170.289062 282.851562 C 168.789062 281.347656 167.941406 279.308594 167.941406 277.183594 C 167.941406 275.054688 168.789062 273.015625 170.289062 271.515625 C 171.792969 270.011719 173.832031 269.164062 175.960938 269.164062 C 178.085938 269.164062 180.125 270.011719 181.628906 271.515625 C 183.132812 273.015625 183.976562 275.054688 183.976562 277.183594 Z M 183.976562 277.183594 "/>
<path style=" stroke:none;fill-rule:evenodd;fill:rgb(30.283055%,34.688334%,87.071031%);fill-opacity:1;" d="M 170.089844 269.164062 C 170.089844 271.292969 169.246094 273.332031 167.742188 274.835938 C 166.238281 276.335938 164.199219 277.183594 162.074219 277.183594 C 159.949219 277.183594 157.910156 276.335938 156.40625 274.835938 C 154.902344 273.332031 154.058594 271.292969 154.058594 269.164062 C 154.058594 267.039062 154.902344 265 156.40625 263.496094 C 157.910156 261.992188 159.949219 261.148438 162.074219 261.148438 C 164.199219 261.148438 166.238281 261.992188 167.742188 263.496094 C 169.246094 265 170.089844 267.039062 170.089844 269.164062 Z M 170.089844 269.164062 "/>
<path style=" stroke:none;fill-rule:evenodd;fill:rgb(82.391089%,80.4654%,53.481346%);fill-opacity:1;" d="M 170.089844 285.199219 C 170.089844 287.324219 169.246094 289.363281 167.742188 290.867188 C 166.238281 292.371094 164.199219 293.214844 162.074219 293.214844 C 159.949219 293.214844 157.910156 292.371094 156.40625 290.867188 C 154.902344 289.363281 154.058594 287.324219 154.058594 285.199219 C 154.058594 283.074219 154.902344 281.035156 156.40625 279.53125 C 157.910156 278.027344 159.949219 277.183594 162.074219 277.183594 C 164.199219 277.183594 166.238281 278.027344 167.742188 279.53125 C 169.246094 281.035156 170.089844 283.074219 170.089844 285.199219 Z M 170.089844 285.199219 "/>
<path style=" stroke:none;fill-rule:evenodd;fill:rgb(77.637903%,78.597696%,0.0030518%);fill-opacity:1;" d="M 149.429688 222.6875 C 149.429688 232.558594 145.507812 242.027344 138.527344 249.007812 C 131.546875 255.988281 122.082031 259.910156 112.210938 259.910156 C 102.339844 259.910156 92.871094 255.988281 85.890625 249.007812 C 78.910156 242.027344 74.992188 232.558594 74.992188 222.6875 C 74.992188 212.816406 78.910156 203.351562 85.890625 196.371094 C 92.871094 189.390625 102.339844 185.46875 112.210938 185.46875 C 122.082031 185.46875 131.546875 189.390625 138.527344 196.371094 C 145.507812 203.351562 149.429688 212.816406 149.429688 222.6875 Z M 149.429688 222.6875 "/>
<path style=" stroke:none;fill-rule:evenodd;fill:rgb(46.930648%,53.289082%,31.511406%);fill-opacity:1;" d="M 149.429688 222.6875 C 149.429688 227.269531 147.609375 231.664062 144.371094 234.902344 C 141.128906 238.144531 136.738281 239.964844 132.15625 239.964844 C 127.574219 239.964844 123.179688 238.144531 119.941406 234.902344 C 116.703125 231.664062 114.882812 227.269531 114.882812 222.6875 C 114.882812 218.109375 116.703125 213.714844 119.941406 210.476562 C 123.179688 207.234375 127.574219 205.414062 132.15625 205.414062 C 136.738281 205.414062 141.128906 207.234375 144.371094 210.476562 C 147.609375 213.714844 149.429688 218.109375 149.429688 222.6875 Z M 149.429688 222.6875 "/>
<path style=" stroke:none;fill-rule:evenodd;fill:rgb(91.168078%,36.475166%,65.899138%);fill-opacity:1;" d="M 149.429688 222.6875 C 149.429688 224.816406 148.585938 226.855469 147.082031 228.359375 C 145.578125 229.863281 143.539062 230.707031 141.414062 230.707031 C 139.285156 230.707031 137.246094 229.863281 135.742188 228.359375 C 134.242188 226.855469 133.394531 224.816406 133.394531 222.6875 C 133.394531 220.5625 134.242188 218.523438 135.742188 217.019531 C 137.246094 215.515625 139.285156 214.671875 141.414062 214.671875 C 143.539062 214.671875 145.578125 215.515625 147.082031 217.019531 C 148.585938 218.523438 149.429688 220.5625 149.429688 222.6875 Z M 149.429688 222.6875 "/>
<path style=" stroke:none;fill-rule:evenodd;fill:rgb(35.808347%,74.412146%,30.33341%);fill-opacity:1;" d="M 135.542969 214.671875 C 135.542969 216.796875 134.699219 218.835938 133.195312 220.339844 C 131.691406 221.84375 129.652344 222.6875 127.527344 222.6875 C 125.402344 222.6875 123.363281 221.84375 121.859375 220.339844 C 120.355469 218.835938 119.511719 216.796875 119.511719 214.671875 C 119.511719 212.546875 120.355469 210.507812 121.859375 209.003906 C 123.363281 207.5 125.402344 206.65625 127.527344 206.65625 C 129.652344 206.65625 131.691406 207.5 133.195312 209.003906 C 134.699219 210.507812 135.542969 212.546875 135.542969 214.671875 Z M 135.542969 214.671875 "/>
<path style=" stroke:none;fill-rule:evenodd;fill:rgb(87.948425%,45.626001%,18.423743%);fill-opacity:1;" d="M 135.542969 230.707031 C 135.542969 232.832031 134.699219 234.871094 133.195312 236.375 C 131.691406 237.878906 129.652344 238.722656 127.527344 238.722656 C 125.402344 238.722656 123.363281 237.878906 121.859375 236.375 C 120.355469 234.871094 119.511719 232.832031 119.511719 230.707031 C 119.511719 228.578125 120.355469 226.539062 121.859375 225.039062 C 123.363281 223.535156 125.402344 222.6875 127.527344 222.6875 C 129.652344 222.6875 131.691406 223.535156 133.195312 225.039062 C 134.699219 226.539062 135.542969 228.578125 135.542969 230.707031 Z M 135.542969 230.707031 "/>
<path style=" stroke:none;fill-rule:evenodd;fill:rgb(3.37377%,85.546654%,42.082856%);fill-opacity:1;" d="M 119.511719 205.414062 C 119.511719 209.996094 117.691406 214.390625 114.449219 217.628906 C 111.210938 220.871094 106.816406 222.6875 102.238281 222.6875 C 97.65625 222.6875 93.261719 220.871094 90.023438 217.628906 C 86.78125 214.390625 84.964844 209.996094 84.964844 205.414062 C 84.964844 200.835938 86.78125 196.441406 90.023438 193.203125 C 93.261719 189.960938 97.65625 188.140625 102.238281 188.140625 C 106.816406 188.140625 111.210938 189.960938 114.449219 193.203125 C 117.691406 196.441406 119.511719 200.835938 119.511719 205.414062 Z M 119.511719 205.414062 "/>
<path style=" stroke:none;fill-rule:evenodd;fill:rgb(26.76585%,70.621805%,57.798123%);fill-opacity:1;" d="M 119.511719 205.414062 C 119.511719 207.542969 118.664062 209.582031 117.164062 211.085938 C 115.660156 212.585938 113.621094 213.433594 111.492188 213.433594 C 109.367188 213.433594 107.328125 212.585938 105.824219 211.085938 C 104.320312 209.582031 103.476562 207.542969 103.476562 205.414062 C 103.476562 203.289062 104.320312 201.25 105.824219 199.746094 C 107.328125 198.242188 109.367188 197.398438 111.492188 197.398438 C 113.621094 197.398438 115.660156 198.242188 117.164062 199.746094 C 118.664062 201.25 119.511719 203.289062 119.511719 205.414062 Z M 119.511719 205.414062 "/>
<path style=" stroke:none;fill-rule:evenodd;fill:rgb(74.082551%,76.485847%,52.338445%);fill-opacity:1;" d="M 105.625 197.398438 C 105.625 199.523438 104.78125 201.5625 103.277344 203.066406 C 101.773438 204.570312 99.734375 205.414062 97.609375 205.414062 C 95.480469 205.414062 93.441406 204.570312 91.941406 203.066406 C 90.4375 201.5625 89.589844 199.523438 89.589844 197.398438 C 89.589844 195.273438 90.4375 193.234375 91.941406 191.730469 C 93.441406 190.226562 95.480469 189.382812 97.609375 189.382812 C 99.734375 189.382812 101.773438 190.226562 103.277344 191.730469 C 104.78125 193.234375 105.625 195.273438 105.625 197.398438 Z M 105.625 197.398438 "/>
<path style=" stroke:none;fill-rule:evenodd;fill:rgb(89.79324%,70.057221%,1.036088%);fill-opacity:1;" d="M 105.625 213.433594 C 105.625 215.558594 104.78125 217.597656 103.277344 219.101562 C 101.773438 220.605469 99.734375 221.449219 97.609375 221.449219 C 95.480469 221.449219 93.441406 220.605469 91.941406 219.101562 C 90.4375 217.597656 89.589844 215.558594 89.589844 213.433594 C 89.589844 211.304688 90.4375 209.265625 91.941406 207.765625 C 93.441406 206.261719 95.480469 205.414062 97.609375 205.414062 C 99.734375 205.414062 101.773438 206.261719 103.277344 207.765625 C 104.78125 209.265625 105.625 211.304688 105.625 213.433594 Z M 105.625 213.433594 "/>
<path style=" stroke:none;fill-rule:evenodd;fill:rgb(11.554131%,81.046769%,53.88571%);fill-opacity:1;" d="M 119.511719 239.964844 C 119.511719 244.542969 117.691406 248.9375 114.449219 252.175781 C 111.210938 255.417969 106.816406 257.238281 102.238281 257.238281 C 97.65625 257.238281 93.261719 255.417969 90.023438 252.175781 C 86.78125 248.9375 84.964844 244.542969 84.964844 239.964844 C 84.964844 235.382812 86.78125 230.988281 90.023438 227.75 C 93.261719 224.507812 97.65625 222.6875 102.238281 222.6875 C 106.816406 222.6875 111.210938 224.507812 114.449219 227.75 C 117.691406 230.988281 119.511719 235.382812 119.511719 239.964844 Z M 119.511719 239.964844 "/>
<path style=" stroke:none;fill-rule:evenodd;fill:rgb(48.818189%,61.875334%,65.755703%);fill-opacity:1;" d="M 119.511719 239.964844 C 119.511719 242.089844 118.664062 244.128906 117.164062 245.632812 C 115.660156 247.136719 113.621094 247.980469 111.492188 247.980469 C 109.367188 247.980469 107.328125 247.136719 105.824219 245.632812 C 104.320312 244.128906 103.476562 242.089844 103.476562 239.964844 C 103.476562 237.835938 104.320312 235.796875 105.824219 234.292969 C 107.328125 232.789062 109.367188 231.945312 111.492188 231.945312 C 113.621094 231.945312 115.660156 232.789062 117.164062 234.292969 C 118.664062 235.796875 119.511719 237.835938 119.511719 239.964844 Z M 119.511719 239.964844 "/>
<path style=" stroke:none;fill-rule:evenodd;fill:rgb(41.510643%,30.969711%,33.32723%);fill-opacity:1;" d="M 105.625 231.945312 C 105.625 234.074219 104.78125 236.113281 103.277344 237.613281 C 101.773438 239.117188 99.734375 239.964844 97.609375 239.964844 C 95.480469 239.964844 93.441406 239.117188 91.941406 237.613281 C 90.4375 236.113281 89.589844 234.074219 89.589844 231.945312 C 89.589844 229.820312 90.4375 227.78125 91.941406 226.277344 C 93.441406 224.773438 95.480469 223.929688 97.609375 223.929688 C 99.734375 223.929688 101.773438 224.773438 103.277344 226.277344 C 104.78125 227.78125 105.625 229.820312 105.625 231.945312 Z M 105.625 231.945312 "/>
<path style=" stroke:none;fill-rule:evenodd;fill:rgb(53.128862%,80.807202%,20.891127%);fill-opacity:1;" d="M 105.625 247.980469 C 105.625 250.105469 104.78125 252.144531 103.277344 253.648438 C 101.773438 255.152344 99.734375 255.996094 97.609375 255.996094 C 95.480469 255.996094 93.441406 255.152344 91.941406 253.648438 C 90.4375 252.144531 89.589844 250.105469 89.589844 247.980469 C 89.589844 245.851562 90.4375 243.8125 91.941406 242.3125 C 93.441406 240.808594 95.480469 239.964844 97.609375 239.964844 C 99.734375 239.964844 101.773438 240.808594 103.277344 242.3125 C 104.78125 243.8125 105.625 245.851562 105.625 247.980469 Z M 105.625 247.980469 "/>
<path style=" stroke:none;fill-rule:evenodd;fill:rgb(56.984817%,98.820478%,55.765621%);fill-opacity:1;" d="M 149.429688 297.128906 C 149.429688 307 145.507812 316.464844 138.527344 323.445312 C 131.546875 330.425781 122.082031 334.347656 112.210938 334.347656 C 102.339844 334.347656 92.871094 330.425781 85.890625 323.445312 C 78.910156 316.464844 74.992188 307 74.992188 297.128906 C 74.992188 287.257812 78.910156 277.789062 85.890625 270.808594 C 92.871094 263.832031 102.339844 259.910156 112.210938 259.910156 C 122.082031 259.910156 131.546875 263.832031 138.527344 270.808594 C 145.507812 277.789062 149.429688 287.257812 149.429688 297.128906 Z M 149.429688 297.128906 "/>
<path style=" stroke:none;fill-rule:evenodd;fill:rgb(42.410925%,71.120775%,40.849928%);fill-opacity:1;" d="M 149.429688 297.128906 C 149.429688 301.710938 147.609375 306.101562 144.371094 309.34375 C 141.128906 312.582031 136.738281 314.402344 132.15625 314.402344 C 127.574219 314.402344 123.179688 312.582031 119.941406 309.34375 C 116.703125 306.101562 114.882812 301.710938 114.882812 297.128906 C 114.882812 292.546875 116.703125 288.152344 119.941406 284.914062 C 123.179688 281.675781 127.574219 279.855469 132.15625 279.855469 C 136.738281 279.855469 141.128906 281.675781 144.371094 284.914062 C 147.609375 288.152344 149.429688 292.546875 149.429688 297.128906 Z M 149.429688 297.128906 "/>
<path style=" stroke:none;fill-rule:evenodd;fill:rgb(56.84596%,59.401846%,94.692912%);fill-opacity:1;" d="M 149.429688 297.128906 C 149.429688 299.253906 148.585938 301.292969 147.082031 302.796875 C 145.578125 304.300781 143.539062 305.144531 141.414062 305.144531 C 139.285156 305.144531 137.246094 304.300781 135.742188 302.796875 C 134.242188 301.292969 133.394531 299.253906 133.394531 297.128906 C 133.394531 295.003906 134.242188 292.964844 135.742188 291.460938 C 137.246094 289.957031 139.285156 289.113281 141.414062 289.113281 C 143.539062 289.113281 145.578125 289.957031 147.082031 291.460938 C 148.585938 292.964844 149.429688 295.003906 149.429688 297.128906 Z M 149.429688 297.128906 "/>
<path style=" stroke:none;fill-rule:evenodd;fill:rgb(64.080262%,39.443046%,7.809567%);fill-opacity:1;" d="M 135.542969 289.113281 C 135.542969 291.238281 134.699219 293.277344 133.195312 294.78125 C 131.691406 296.285156 129.652344 297.128906 127.527344 297.128906 C 125.402344 297.128906 123.363281 296.285156 121.859375 294.78125 C 120.355469 293.277344 119.511719 291.238281 119.511719 289.113281 C 119.511719 286.984375 120.355469 284.945312 121.859375 283.441406 C 123.363281 281.9375 125.402344 281.09375 127.527344 281.09375 C 129.652344 281.09375 131.691406 281.9375 133.195312 283.441406 C 134.699219 284.945312 135.542969 286.984375 135.542969 289.113281 Z M 135.542969 289.113281 "/>
<path style=" stroke:none;fill-rule:evenodd;fill:rgb(96.472114%,54.853132%,9.147784%);fill-opacity:1;" d="M 135.542969 305.144531 C 135.542969 307.269531 134.699219 309.308594 133.195312 310.8125 C 131.691406 312.316406 129.652344 313.160156 127.527344 313.160156 C 125.402344 313.160156 123.363281 312.316406 121.859375 310.8125 C 120.355469 309.308594 119.511719 307.269531 119.511719 305.144531 C 119.511719 303.019531 120.355469 300.980469 121.859375 299.476562 C 123.363281 297.972656 125.402344 297.128906 127.527344 297.128906 C 129.652344 297.128906 131.691406 297.972656 133.195312 299.476562 C 134.699219 300.980469 135.542969 303.019531 135.542969 305.144531 Z M 135.542969 305.144531 "/>
<path style=" stroke:none;fill-rule:evenodd;fill:rgb(57.088579%,61.617456%,45.162127%);fill-opacity:1;" d="M 119.511719 279.855469 C 119.511719 284.4375 117.691406 288.828125 114.449219 292.070312 C 111.210938 295.308594 106.816406 297.128906 102.238281 297.128906 C 97.65625 297.128906 93.261719 295.308594 90.023438 292.070312 C 86.78125 288.828125 84.964844 284.4375 84.964844 279.855469 C 84.964844 275.273438 86.78125 270.878906 90.023438 267.640625 C 93.261719 264.402344 97.65625 262.582031 102.238281 262.582031 C 106.816406 262.582031 111.210938 264.402344 114.449219 267.640625 C 117.691406 270.878906 119.511719 275.273438 119.511719 279.855469 Z M 119.511719 279.855469 "/>
<path style=" stroke:none;fill-rule:evenodd;fill:rgb(22.281224%,12.437629%,83.739986%);fill-opacity:1;" d="M 119.511719 279.855469 C 119.511719 281.980469 118.664062 284.019531 117.164062 285.523438 C 115.660156 287.027344 113.621094 287.871094 111.492188 287.871094 C 109.367188 287.871094 107.328125 287.027344 105.824219 285.523438 C 104.320312 284.019531 103.476562 281.980469 103.476562 279.855469 C 103.476562 277.726562 104.320312 275.6875 105.824219 274.1875 C 107.328125 272.683594 109.367188 271.839844 111.492188 271.839844 C 113.621094 271.839844 115.660156 272.683594 117.164062 274.1875 C 118.664062 275.6875 119.511719 277.726562 119.511719 279.855469 Z M 119.511719 279.855469 "/>
<path style=" stroke:none;fill-rule:evenodd;fill:rgb(91.529717%,14.728008%,73.775845%);fill-opacity:1;" d="M 105.625 271.839844 C 105.625 273.964844 104.78125 276.003906 103.277344 277.507812 C 101.773438 279.011719 99.734375 279.855469 97.609375 279.855469 C 95.480469 279.855469 93.441406 279.011719 91.941406 277.507812 C 90.4375 276.003906 89.589844 273.964844 89.589844 271.839844 C 89.589844 269.710938 90.4375 267.671875 91.941406 266.167969 C 93.441406 264.664062 95.480469 263.820312 97.609375 263.820312 C 99.734375 263.820312 101.773438 264.664062 103.277344 266.167969 C 104.78125 267.671875 105.625 269.710938 105.625 271.839844 Z M 105.625 271.839844 "/>
<path style=" stroke:none;fill-rule:evenodd;fill:rgb(24.745556%,92.637522%,43.794919%);fill-opacity:1;" d="M 105.625 287.871094 C 105.625 289.996094 104.78125 292.035156 103.277344 293.539062 C 101.773438 295.042969 99.734375 295.886719 97.609375 295.886719 C 95.480469 295.886719 93.441406 295.042969 91.941406 293.539062 C 90.4375 292.035156 89.589844 289.996094 89.589844 287.871094 C 89.589844 285.746094 90.4375 283.707031 91.941406 282.203125 C 93.441406 280.699219 95.480469 279.855469 97.609375 279.855469 C 99.734375 279.855469 101.773438 280.699219 103.277344 282.203125 C 104.78125 283.707031 105.625 285.746094 105.625 287.871094 Z M 105.625 287.871094 "/>
<path style=" stroke:none;fill-rule:evenodd;fill:rgb(76.475166%,62.119478%,79.131762%);fill-opacity:1;" d="M 119.511719 314.402344 C 119.511719 318.984375 117.691406 323.375 114.449219 326.617188 C 111.210938 329.855469 106.816406 331.675781 102.238281 331.675781 C 97.65625 331.675781 93.261719 329.855469 90.023438 326.617188 C 86.78125 323.375 84.964844 318.984375 84.964844 314.402344 C 84.964844 309.820312 86.78125 305.425781 90.023438 302.1875 C 93.261719 298.949219 97.65625 297.128906 102.238281 297.128906 C 106.816406 297.128906 111.210938 298.949219 114.449219 302.1875 C 117.691406 305.425781 119.511719 309.820312 119.511719 314.402344 Z M 119.511719 314.402344 "/>
<path style=" stroke:none;fill-rule:evenodd;fill:rgb(74.026093%,15.883116%,42.246128%);fill-opacity:1;" d="M 119.511719 314.402344 C 119.511719 316.527344 118.664062 318.566406 117.164062 320.070312 C 115.660156 321.574219 113.621094 322.417969 111.492188 322.417969 C 109.367188 322.417969 107.328125 321.574219 105.824219 320.070312 C 104.320312 318.566406 103.476562 316.527344 103.476562 314.402344 C 103.476562 312.277344 104.320312 310.238281 105.824219 308.734375 C 107.328125 307.230469 109.367188 306.386719 111.492188 306.386719 C 113.621094 306.386719 115.660156 307.230469 117.164062 308.734375 C 118.664062 310.238281 119.511719 312.277344 119.511719 314.402344 Z M 119.511719 314.402344 "/>
<path style=" stroke:none;fill-rule:evenodd;fill:rgb(26.730755%,58.907454%,82.232395%);fill-opacity:1;" d="M 105.625 306.386719 C 105.625 308.511719 104.78125 310.550781 103.277344 312.054688 C 101.773438 313.558594 99.734375 314.402344 97.609375 314.402344 C 95.480469 314.402344 93.441406 313.558594 91.941406 312.054688 C 90.4375 310.550781 89.589844 308.511719 89.589844 306.386719 C 89.589844 304.257812 90.4375 302.21875 91.941406 300.714844 C 93.441406 299.214844 95.480469 298.367188 97.609375 298.367188 C 99.734375 298.367188 101.773438 299.214844 103.277344 300.714844 C 104.78125 302.21875 105.625 304.257812 105.625 306.386719 Z M 105.625 306.386719 "/>
<path style=" stroke:none;fill-rule:evenodd;fill:rgb(71.212329%,92.88777%,87.899596%);fill-opacity:1;" d="M 105.625 322.417969 C 105.625 324.542969 104.78125 326.582031 103.277344 328.085938 C 101.773438 329.589844 99.734375 330.433594 97.609375 330.433594 C 95.480469 330.433594 93.441406 329.589844 91.941406 328.085938 C 90.4375 326.582031 89.589844 324.542969 89.589844 322.417969 C 89.589844 320.292969 90.4375 318.253906 91.941406 316.75 C 93.441406 315.246094 95.480469 314.402344 97.609375 314.402344 C 99.734375 314.402344 101.773438 315.246094 103.277344 316.75 C 104.78125 318.253906 105.625 320.292969 105.625 322.417969 Z M 105.625 322.417969 "/>
</g>
</svg>
